<svg width="281" height="66" viewBox="0 0 281 66" fill="none" xmlns="http://www.w3.org/2000/svg">
<path d="M9.1 65.2V56.2H2.38419e-07V10H9.1V0.899996H37.3V10H46.5V56.2H37.3V65.2H9.1ZM10.1 55.2H36.3V11H10.1V55.2ZM58.5938 65.2V0.899996H68.6938V28.1H76.6938V19H86.8938V28.1H94.8938V0.899996H105.094V65.2H94.8938V38H68.6938V65.2H58.5938ZM126.288 65.2V56.2H117.188V10H126.288V0.899996H154.488V10H163.688V29H153.488V11H127.288V55.2H153.488V47.1H144.488V38H135.288V28.1H145.488V37H163.688V56.2H154.488V65.2H126.288ZM184.881 65.2V56.2H175.781V0.899996H185.881V55.2H212.081V0.899996H222.281V56.2H213.081V65.2H184.881ZM243.475 65.2V56.2H234.375V46.1H244.475V55.2H270.675V38H243.475V29H234.375V10H243.475V0.899996H271.675V10H280.875V20H270.675V11H244.475V28.1H271.675V37H280.875V56.2H271.675V65.2H243.475Z" fill="white"/>
</svg>
