<svg width="379" height="76" viewBox="0 0 379 76" fill="none" xmlns="http://www.w3.org/2000/svg">
<path d="M40.3 10.7C41.1 11.6333 41.6667 12.3333 42 12.8C44.4667 15.7333 46.2333 18.2667 47.3 20.4C48.4333 22.4667 49 25.1333 49 28.4C49 31.6 48.3333 34.8333 47 38.1C45.7333 41.3 43.8667 44.0667 41.4 46.4C39 48.6667 36.1333 50.1333 32.8 50.8C28.7333 51.6667 25.2667 52.1 22.4 52.1C20.4667 52.1 18.5667 52 16.7 51.8L13.7 51.7V52.5C13.7 52.7667 13.6333 53 13.5 53.2C13.3667 53.3333 13.2333 53.5667 13.1 53.9V74.8C13.1 74.8 12.9 75 12.5 75.4C11.1 75.4 9.53333 75.1667 7.8 74.7C6.13333 74.3 4.83333 73.7333 3.9 73C3.9 69.1333 3.66667 64.4667 3.2 59C2.8 52.8667 2.6 48.2667 2.6 45.2C2.6 43.8667 2.73333 42.0667 3 39.8C3.2 38.4667 3.3 37.3333 3.3 36.4C3.3 35.3333 3.16667 34.4667 2.9 33.8C2.7 33.0667 2.6 32.5667 2.6 32.3C2.6 32.0333 2.7 31.6667 2.9 31.2C3.16667 30.7333 3.3 29.9333 3.3 28.8C3.3 28.2 3.16667 27.5667 2.9 26.9C2.63333 26.2333 2.5 25.8 2.5 25.6C2.5 24.9333 2.63333 24 2.9 22.8C3.16667 21.6 3.3 20.7 3.3 20.1C3.3 19.2333 3.13333 18.6667 2.8 18.4C2.46667 18.0667 2 17.8667 1.4 17.8C0.866667 17.6667 0.6 17.4667 0.6 17.2C0.6 16.6667 0.8 16.2 1.2 15.8C1.6 15.3333 2.06667 15.0667 2.6 15V8.9C2.6 8.63333 2.93333 8.26666 3.6 7.8C4.33333 7.26666 4.8 7 5 7H18.7L19.9 6.4H30.9C31.7 6.66666 32.7667 7.19999 34.1 8C36.1667 9.26666 38.2333 10.1667 40.3 10.7ZM23.5 8.9C21.9667 8.9 20.6667 9.23333 19.6 9.9C18.6 10.5667 17.4667 11.6667 16.2 13.2C16.6 13.2 17.4 12.9667 18.6 12.5C19.8 12.0333 20.4333 11.8333 20.5 11.9C20.2333 12.2333 19.8333 12.6 19.3 13C18.8333 13.3333 18.4 13.5667 18 13.7C18.4667 13.8333 18.9333 14.1 19.4 14.5C19.8667 14.9 20.4333 15.1 21.1 15.1L22.3 15L21.1 14.3C22.0333 13.8333 23.3667 13.6 25.1 13.6L27.4 13.7L28.4 12.6C28.3333 12.6667 28.3 12.7667 28.3 12.9C28.3 13.1667 28.5667 13.3667 29.1 13.5C29.6333 13.6333 30.1 13.7667 30.5 13.9C30.9 13.9667 31.2 14 31.4 14C33.3333 14.2667 34.4333 14.6 34.7 15L34.1 15.6C35.7667 16.9333 36.7667 17.7667 37.1 18.1C37.3667 18.3 37.6 18.6333 37.8 19.1C38.0667 19.5 38.3 19.8333 38.5 20.1C38.7667 20.3 39.1667 20.4333 39.7 20.5L38.3 21.7C38.5 21.8333 38.9333 22.0667 39.6 22.4C40.3333 22.7333 40.8333 23.1667 41.1 23.7C41.3667 24.2333 41.5 24.9333 41.5 25.8C41.5 26.3333 41.4667 26.6333 41.4 26.7C42.5333 25.9667 43.4333 25.3333 44.1 24.8C44.8333 24.2 45.2 23.5 45.2 22.7C45.2 21.2333 44.9 20.5 44.3 20.5C44.1 20.5 43.7667 20.6333 43.3 20.9C42.8333 21.1667 42.4667 21.4333 42.2 21.7L42.1 21.3C42.1 21.1667 42.3 20.7667 42.7 20.1C43.1667 19.3667 43.4 18.9 43.4 18.7C43.4 18.5667 43.1 18.0667 42.5 17.2C41.9 16.3333 41.2 15.5333 40.4 14.8C39.6 14.0667 38.7667 13.7 37.9 13.7L39 12.5C36.4 11.1 33.9667 10.1667 31.7 9.7C29.5 9.16666 26.7667 8.9 23.5 8.9ZM6.8 16.8C7.93333 16.8 9.53333 16.1333 11.6 14.8C13.7333 13.4 15.2667 12.2333 16.2 11.3C15 11.3 13.7333 11.6333 12.4 12.3C11.0667 12.9667 9.43333 13.8667 7.5 15H6.8C7.46667 14.2 8.26667 13.5 9.2 12.9C10.1333 12.2333 11.0333 11.6333 11.9 11.1C12.7667 10.5667 13.3667 10.2 13.7 9.99999V9.2C11.2333 9.2 9.23333 9.3 7.7 9.49999C6.16667 9.7 5.4 10.3 5.4 11.3H7.3C7.3 11.4333 7.33333 11.5333 7.4 11.6C7.46667 11.6667 7.5 11.7667 7.5 11.9C7.5 11.9667 7.16667 12.3333 6.5 13C5.9 13.6 5.4 14.0333 5 14.3C5.13333 15.3 5.3 15.9667 5.5 16.3C5.76667 16.6333 6.2 16.8 6.8 16.8ZM28.4 12.6L28.5 12.5L28.4 12.6ZM23.5 41.5V42.2C24.3667 41.6 25.6333 41.2333 27.3 41.1C29.0333 40.9667 30.0667 40.8667 30.4 40.8C32.6 40.6667 34.2667 39.7333 35.4 38C36.6 36.2667 37.5667 33.9333 38.3 31L39 28C39 26.8 38.3333 25 37 22.6C35.6667 20.1333 34.5 18.6333 33.5 18.1C32.5667 17.6333 30.5333 17.4 27.4 17.4L22.3 17.5C20.6333 17.5667 18.8667 17.6667 17 17.8C15.1333 17.8667 13.8333 17.9667 13.1 18.1L12.5 18.7V20.7V23.7L12.8 29.3C13 33.7 13.2 36.9667 13.4 39.1C13.6 41.1667 13.9 42.2 14.3 42.2H23.1L23.5 41.5ZM5.7 18.7C5.7 18.9 5.76667 19.1333 5.9 19.4C6.03333 19.6 6.2 19.7667 6.4 19.9C7.6 19.5 8.2 18.8333 8.2 17.9C7.6 17.9 7.03333 17.9667 6.5 18.1C5.96667 18.2333 5.7 18.4333 5.7 18.7ZM10 19.2C9.13333 19.2 8.13333 19.7333 7 20.8C5.86667 21.8 5.3 22.7667 5.3 23.7H9.4C9.4 23.5 9.46667 22.9333 9.6 22C9.8 21.0667 9.93333 20.1333 10 19.2ZM5.7 27.3C6.63333 26.5667 7.23333 25.7333 7.5 24.8C7.3 24.7333 7.06667 24.7 6.8 24.7C6.33333 24.7 6 24.9 5.8 25.3C5.6 25.6333 5.5 26 5.5 26.4L5.7 27.3ZM10.1 27.8C10.1 26.4667 9.86667 25.4667 9.4 24.8C8.6 25.4 7.86667 26.3333 7.2 27.6C6.6 28.8 6.3 29.9 6.3 30.9C6.3 31.9 6.63333 32.4 7.3 32.4C6.56667 32.6 6.06667 33.0333 5.8 33.7C5.6 34.3 5.5 35.1 5.5 36.1C6.16667 36.1 6.7 35.9 7.1 35.5C7.5 35.0333 7.93333 34.3333 8.4 33.4C8.86667 32.2 9.4 31.4 10 31L10.1 27.8ZM41.8 29.6C43.4667 29.6 44.7667 29.4667 45.7 29.2C46.6333 28.9333 47.1 28.2667 47.1 27.2C47.1 26.5333 46.9667 26.0667 46.7 25.8C46.5 25.5333 46.1333 25.4 45.6 25.4C44.5333 25.4 43.6333 25.8667 42.9 26.8C42.1667 27.6667 41.8 28.6 41.8 29.6ZM42.9 30.3C42.3667 30.3 41.8333 30.4333 41.3 30.7C40.8333 30.9 40.6 31.2333 40.6 31.7C42.2667 31.7 43.4 31.2667 44 30.4L42.9 30.3ZM44.6 35.3C45.0667 35.3 45.5 34.7333 45.9 33.6C46.3 32.4 46.5 31.5333 46.5 31H45.7C44.9 31.3333 43.8 31.8667 42.4 32.6C41 33.3333 40.3 33.8333 40.3 34.1V35.3H44.6ZM8.2 32.3C8 32.3667 7.73333 32.4 7.4 32.4H7.3C7.5 32.3333 7.8 32.3 8.2 32.3ZM10.8 36.9C10.8 36.1 10.7333 35.4667 10.6 35C10.5333 34.5333 10.3333 34 10 33.4C8.93333 34.2667 7.93333 35.4 7 36.8C6.13333 38.1333 5.7 39.3667 5.7 40.5C7.43333 40.5 8.7 40.3 9.5 39.9C10.3667 39.4333 10.8 38.4333 10.8 36.9ZM37.2 45.3C37.8 45.3 38.7 44.8 39.9 43.8C41.1667 42.7333 42.2667 41.5 43.2 40.1C44.2 38.7 44.7 37.4333 44.7 36.3C43.1667 36.3 41.7667 36.7 40.5 37.5C39.2333 38.3 38.6 39.4 38.6 40.8H39.3C39.3 41.4 37.9 42.0667 35.1 42.8C32.3667 43.4667 29.3 44.0667 25.9 44.6C22.5 45.1333 20.2 45.4 19 45.4C19 45.6667 19.0667 46.0333 19.2 46.5C19.3333 46.9 19.5667 47.1 19.9 47.1H24.2L23.1 45.8H23.5C23.8333 45.8667 24.4333 45.9667 25.3 46.1C26.1667 46.1667 27.0333 46.3 27.9 46.5C27.7 46.5667 27.6 46.6667 27.6 46.8C27.6 47.2 28.3 47.4667 29.7 47.6C31.1 47.7333 31.7667 47.8 31.7 47.8C33.9 47.8 35 47.3667 35 46.5H31.6C31.8 46.3 32.1667 46.0667 32.7 45.8C33.2333 45.5333 33.7 45.3333 34.1 45.2L37.2 45.3ZM8.8 41.4C7.46667 41.4 6.5 41.6333 5.9 42.1C5.3 42.5 5 43.4 5 44.8C5.93333 44.8 6.76667 44.5333 7.5 44C8.3 43.4 9.13333 42.5667 10 41.5L8.8 41.4ZM6.8 46.5C7.73333 46.5 9.4 45.9 11.8 44.7C11.6667 44.4333 11.5 44.1 11.3 43.7C11.1667 43.3 11.1 43 11.1 42.8H10.7L6.8 46.5ZM12.5 48.2C13.4333 48.6 14.5667 48.8333 15.9 48.9C17.3 48.9 18.2333 48.9 18.7 48.9L16.8 47.1L18 46.5C18 46.0333 17.6 45.8 16.8 45.8C15.6667 45.9333 14.6667 46.1667 13.8 46.5C12.9333 46.7667 12.5 47.3333 12.5 48.2ZM11.2 46.5C10.6667 46.6333 9.86667 46.8333 8.8 47.1C7.73333 47.3 6.93333 47.6333 6.4 48.1C5.93333 48.5667 5.7 49.2667 5.7 50.2L5.6 50.9C5.6 51.6333 5.86667 52 6.4 52L11.2 47.1V46.5ZM23.5 48.9C23.3667 48.6333 22.9333 48.4667 22.2 48.4C21.4667 48.2667 20.9 48.2 20.5 48.2C20.8333 48.5333 21.1333 48.7667 21.4 48.9C21.6667 48.9667 22.1 49 22.7 49L23.5 48.9ZM10 50.2C9.53333 50.2 8.9 50.9 8.1 52.3C7.3 53.6333 6.86667 54.3333 6.8 54.4C7.4 54.4 8.06667 54.2333 8.8 53.9C9.6 53.5667 10 53.3333 10 53.2V50.2ZM8.5 55.7C7.76667 55.7 7.2 55.7667 6.8 55.9C6.4 56.0333 6.2 56.4 6.2 57C6.2 57.2 6.26667 57.3667 6.4 57.5C7.53333 56.9667 8.33333 56.3667 8.8 55.7H8.5ZM6.4 60.1C7.93333 60.1 8.96667 59.8667 9.5 59.4C10.0333 58.8667 10.3 57.8333 10.3 56.3H9.4L6.4 59.5V60.1ZM10 60C9.66667 60.1333 9.1 60.3333 8.3 60.6C7.56667 60.8 7.03333 61.1 6.7 61.5C6.43333 61.8333 6.3 62.3667 6.3 63.1L6.4 64.4C6.53333 64.2 7.1 63.6333 8.1 62.7C9.16667 61.7667 9.8 60.8667 10 60ZM8.2 66.8C9.26667 66.4 9.96667 65.8667 10.3 65.2C10.6333 64.4667 10.8 63.4333 10.8 62.1C9.93333 62.1 9.2 62.5 8.6 63.3C8.06667 64.0333 7.46667 65.1667 6.8 66.7C6.46667 67.5 6.1 68.2667 5.7 69C5.3 69.7333 4.86667 70.2667 4.4 70.6C5.13333 71.3333 5.56667 71.7333 5.7 71.8C6.43333 71.8 7.36667 71.2 8.5 70C9.63333 68.8 10.2 67.7333 10.2 66.8H8.2ZM8.8 71.8C9.4 71.8 9.73333 71.6333 9.8 71.3C9.93333 70.9667 10 70.6 10 70.2C10 69.7333 10 69.4333 10 69.3C9.53333 69.5 9.23333 69.9333 9.1 70.6C8.96667 71.2667 8.86667 71.6667 8.8 71.8ZM87.3523 27C92.219 30.2667 95.6857 33.9667 97.7523 38.1C99.8857 42.2333 100.952 47.3 100.952 53.3L100.852 56.6C100.719 56.9333 100.452 57.2 100.052 57.4C99.719 57.6 99.4523 57.8 99.2523 58C99.0523 58.2 98.9523 58.5667 98.9523 59.1C98.9523 59.3667 98.9857 59.6333 99.0523 59.9C99.119 60.1 99.2857 60.2667 99.5523 60.4C99.1523 60.4 98.819 60.6667 98.5523 61.2C98.3523 61.6667 98.019 62.5333 97.5523 63.8C97.019 65.6667 96.4857 66.8 95.9523 67.2C92.2857 69.9333 88.3857 71.9 84.2523 73.1C80.119 74.3 75.5523 74.9 70.5523 74.9L62.7523 70C61.619 70 60.6857 69.6333 59.9523 68.9C59.219 68.1667 58.4857 67.0667 57.7523 65.6C57.2857 64.8667 56.7857 64.1333 56.2523 63.4C55.719 62.6 55.1523 62 54.5523 61.6C53.619 59.3333 52.9857 57 52.6523 54.6C52.319 52.1333 52.1523 49.3667 52.1523 46.3L55.9523 35.7C56.019 35.5667 56.819 34.7 58.3523 33.1C59.9523 31.5 61.3523 30.1333 62.5523 29C64.3523 27.4 66.5857 26.0667 69.2523 25C71.919 23.9333 74.4523 23.4 76.8523 23.4C78.5857 23.4 80.3523 23.7333 82.1523 24.4C84.019 25.0667 85.7523 25.9333 87.3523 27ZM64.6523 32C64.6523 32.2667 64.3523 32.6 63.7523 33C63.219 33.3333 62.9523 33.7 62.9523 34.1H64.3523C66.4857 34.1 67.5523 33.8 67.5523 33.2L65.7523 32C65.7523 31.8667 65.819 31.7333 65.9523 31.6C66.0857 31.4667 66.219 31.4 66.3523 31.4C66.819 31.4 67.3857 31.5333 68.0523 31.8C68.7857 32 69.2857 32.1 69.5523 32.1C70.0857 32.1 70.5857 31.9333 71.0523 31.6C71.519 31.2667 72.019 30.8 72.5523 30.2C73.3523 29.2667 74.1523 28.6667 74.9523 28.4H74.0523H73.3523C72.9523 28.4 72.6523 28.3667 72.4523 28.3C72.2523 28.1667 72.0523 27.9667 71.8523 27.7C71.2523 27.7 70.619 27.8667 69.9523 28.2C69.3523 28.4667 68.619 28.9333 67.7523 29.6C66.419 30.5333 65.319 31.1333 64.4523 31.4C64.5857 31.6 64.6523 31.8 64.6523 32ZM80.7523 27.7C80.5523 27.7 80.0857 28.0333 79.3523 28.7C78.6857 29.3667 78.2523 29.8667 78.0523 30.2L80.5523 30.7C83.219 31.1667 84.8523 31.4 85.4523 31.4C85.7857 31.4 86.0857 31.3667 86.3523 31.3C86.619 31.2333 86.9523 31.0667 87.3523 30.8C86.6857 29.9333 85.6523 29.2 84.2523 28.6C82.919 28 81.7523 27.7 80.7523 27.7ZM86.4523 32C86.4523 32.4667 86.7523 32.8333 87.3523 33.1C87.9523 33.3 88.5523 33.4 89.1523 33.4V32H86.4523ZM78.3523 33.1C76.0857 33.1 74.1857 33.5 72.6523 34.3C71.119 35.1 69.419 36.4 67.5523 38.2C67.1523 38.5333 66.8857 39.2333 66.7523 40.3C66.6857 40.9 66.5857 41.3667 66.4523 41.7C66.319 42.0333 66.0857 42.3 65.7523 42.5C65.4857 43.1 65.119 44.4333 64.6523 46.5C64.1857 48.5 63.919 49.8333 63.8523 50.5C63.7857 50.9 63.7523 51.4333 63.7523 52.1C63.7523 57.7 66.6523 61.9 72.4523 64.7L77.1523 64.9C81.1523 64.9 84.219 64.2667 86.3523 63C88.5523 61.7333 90.0523 59.8667 90.8523 57.4C91.719 54.9333 92.1523 51.7 92.1523 47.7C92.1523 46.6333 91.8523 45.0667 91.2523 43C90.719 40.8667 90.1857 39.2667 89.6523 38.2C87.8523 37.8 86.219 36.3667 84.7523 33.9C84.019 33.9 82.9857 33.7667 81.6523 33.5C80.1857 33.2333 79.0857 33.1 78.3523 33.1ZM90.6523 33.1C90.319 33.1 90.0523 33.2667 89.8523 33.6C89.719 33.8667 89.6523 34.1667 89.6523 34.5C89.6523 35.5 90.0857 36.1333 90.9523 36.4C91.0857 36.3333 91.3857 36.1667 91.8523 35.9C92.3857 35.6333 92.719 35.3667 92.8523 35.1C92.5857 34.8333 92.1523 34.4333 91.5523 33.9C91.019 33.3667 90.719 33.1 90.6523 33.1ZM61.6523 34.5C61.4523 34.5 61.0523 34.7667 60.4523 35.3C59.919 35.8333 59.619 36.2667 59.5523 36.6C59.5523 37.4 60.119 37.8 61.2523 37.8C61.6523 37.8 62.119 37.8 62.6523 37.8C63.2523 37.7333 63.6523 37.6667 63.8523 37.6L64.4523 35.1L61.6523 34.5ZM91.5523 36.9V37.8C92.6857 37.8 93.319 37.5 93.4523 36.9H91.5523ZM58.6523 38.2C57.9857 38.2 57.519 38.6333 57.2523 39.5C56.9857 40.3667 56.8523 41.2 56.8523 42C57.9857 42 59.119 41.7667 60.2523 41.3C61.3857 40.8333 62.1523 40.2 62.5523 39.4C61.4857 38.6 60.1857 38.2 58.6523 38.2ZM95.4523 40.4C95.4523 39.8 95.3523 39.3 95.1523 38.9C94.9523 38.4333 94.619 38.2 94.1523 38.2C93.219 38.2 92.7523 38.5 92.7523 39.1C92.7523 39.9667 93.6523 40.4 95.4523 40.4ZM60.4523 43.2C61.2523 43.2 61.819 43.0667 62.1523 42.8C62.5523 42.5333 62.8857 42.0333 63.1523 41.3L62.8523 41.2C62.4523 41.2 61.9523 41.4333 61.3523 41.9C60.7523 42.3667 60.4523 42.8 60.4523 43.2ZM94.0523 42.7C94.3857 42.7 94.6857 42.5667 94.9523 42.3C95.2857 41.9667 95.4523 41.6333 95.4523 41.3H94.0523V42.7ZM97.7523 45.6C97.7523 45.2 97.5857 44.7 97.2523 44.1C96.9857 43.4333 96.6523 43.1 96.2523 43.1C95.1857 43.1 94.6523 43.5 94.6523 44.3C94.6523 44.6333 94.7523 45.0333 94.9523 45.5C95.219 45.9 95.3523 46.2 95.3523 46.4V46.5C95.3523 46.7 95.2523 46.9 95.0523 47.1C94.919 47.3 94.7857 47.4 94.6523 47.4L95.0523 47.5C95.1857 47.5 95.4523 47.3333 95.8523 47C96.2523 46.6 96.519 46.3667 96.6523 46.3C96.919 46.3 97.1523 46.2333 97.3523 46.1C97.619 45.9 97.7523 45.7333 97.7523 45.6ZM57.9523 44.3C56.8857 44.3 56.0857 44.5667 55.5523 45.1C55.0857 45.6333 54.8523 46.4667 54.8523 47.6C55.719 47.6 56.5523 47.3667 57.3523 46.9C58.1523 46.4333 59.0523 45.8 60.0523 45C60.0523 44.5333 59.5523 44.3 58.5523 44.3C58.419 44.3 58.319 44.3333 58.2523 44.4C58.1857 44.4 58.119 44.4 58.0523 44.4C57.9857 44.4 57.9523 44.4 57.9523 44.4C57.9523 44.3333 57.9523 44.3 57.9523 44.3ZM60.7523 49.2C61.1523 49.2 61.3523 48.6333 61.3523 47.5C61.3523 46.3667 61.3523 45.7333 61.3523 45.6C61.0857 45.8667 60.6857 46.1333 60.1523 46.4C59.619 46.6667 59.2523 46.8667 59.0523 47C57.2523 47.8 56.219 48.5333 55.9523 49.2H60.7523ZM98.0523 51.3C98.0523 48.7 97.7523 47.4 97.1523 47.4L94.6523 50C94.919 50.4667 95.3857 50.8 96.0523 51C96.719 51.2 97.3857 51.3 98.0523 51.3ZM54.9523 54.3C55.6857 54.3 56.7857 53.9667 58.2523 53.3C59.719 52.5667 60.4523 51.8667 60.4523 51.2H55.9523C55.2857 51.2 54.9523 52.2333 54.9523 54.3ZM94.5523 56.8C97.0857 56.8 98.3523 55.9333 98.3523 54.2C98.3523 53.5333 98.0857 53.1333 97.5523 53C97.0857 52.8 96.3857 52.7 95.4523 52.7C95.4523 53.3667 95.2857 54.0333 94.9523 54.7C94.6857 55.3667 94.5523 56.0667 94.5523 56.8ZM61.6523 52.8C61.3857 52.8 60.7523 53.0333 59.7523 53.5C58.819 53.9667 58.1523 54.4 57.7523 54.8L60.7523 55.5C61.019 55.5 61.219 55.2333 61.3523 54.7C61.5523 54.1 61.6523 53.4667 61.6523 52.8ZM57.0523 59.8C57.1857 59.7333 57.519 59.5333 58.0523 59.2C58.6523 58.8 59.119 58.4 59.4523 58C59.8523 57.5333 60.0523 57.0667 60.0523 56.6L58.9523 56.5C58.619 56.5 58.0857 56.5667 57.3523 56.7C56.6857 56.7667 56.3523 56.9667 56.3523 57.3L57.0523 59.8ZM58.2523 61.6C59.4523 61.4 60.8857 60.8 62.5523 59.8C62.5523 59.2667 62.4523 58.8 62.2523 58.4C62.119 58 61.919 57.8 61.6523 57.8L61.3523 57.9L58.2523 61V61.6ZM94.4523 60.5C95.2523 60.5 95.919 60.3 96.4523 59.9C96.9857 59.4333 97.2523 58.7667 97.2523 57.9H94.4523C94.4523 58.3667 94.2857 58.8333 93.9523 59.3C93.6857 59.7667 93.319 60.1333 92.8523 60.4L94.4523 60.5ZM59.5523 63.5C60.419 65.2333 61.119 66.1 61.6523 66.1C62.3857 66.1 63.1523 65.8333 63.9523 65.3C64.7523 64.7 65.1523 64.0333 65.1523 63.3C64.0857 63.3 63.419 63.5667 63.1523 64.1V61L59.5523 62.8V63.1V63.5ZM90.0523 64.9C91.2523 64.9 92.419 64.7333 93.5523 64.4C94.7523 64 95.3523 63.2667 95.3523 62.2C95.3523 61.8 94.7857 61.6 93.6523 61.6C92.7857 61.6 91.9523 61.9333 91.1523 62.6C90.419 63.2667 90.0523 64.0333 90.0523 64.9ZM64.4523 68.4C64.919 68.4 65.319 68.3333 65.6523 68.2C65.9857 68 66.319 67.6667 66.6523 67.2V69.2C67.4523 69.2 68.219 69.0333 68.9523 68.7C69.6857 68.3667 70.0523 67.8667 70.0523 67.2C70.0523 66.7333 69.5857 66.3 68.6523 65.9C67.7857 65.5 67.119 65.3 66.6523 65.3H66.3523L62.5523 66.5C62.5523 67.0333 62.719 67.5 63.0523 67.9C63.4523 68.2333 63.919 68.4 64.4523 68.4ZM91.5523 65.8C91.2857 65.8 90.6857 65.8 89.7523 65.8C88.8857 65.8 88.0857 65.9333 87.3523 66.2C86.6857 66.4 86.0523 66.7333 85.4523 67.2C84.6523 67.8 84.219 68.1 84.1523 68.1H76.1523L74.3523 70.1C75.219 70.5 76.019 70.7667 76.7523 70.9C77.4857 70.9667 78.3857 71 79.4523 71C80.719 71 82.2523 70.6667 84.0523 70C85.919 69.3333 87.619 68.6333 89.1523 67.9C90.7523 67.1 91.5523 66.6333 91.5523 66.5V65.8ZM93.4523 67.8H93.2523C92.719 67.8 92.3523 68 92.1523 68.4L93.4523 67.8ZM68.5523 70.7C70.419 70.7 71.3523 69.8667 71.3523 68.2C70.619 68.2 69.9523 68.4667 69.3523 69C68.819 69.4667 68.5523 70.0333 68.5523 70.7ZM73.1523 69.1C73.819 69.1 74.419 68.8667 74.9523 68.4L74.0523 68.3H73.6523C72.9857 68.3 72.5857 68.5333 72.4523 69L73.1523 69.1ZM86.6523 71C87.0523 71 87.319 70.9667 87.4523 70.9C87.6523 70.7667 87.7857 70.5 87.8523 70.1L85.9523 70.9L86.6523 71ZM81.7523 72.7L81.1523 72.6C80.7523 72.6 80.4523 72.6667 80.2523 72.8C80.0523 72.8667 79.919 73.0667 79.8523 73.4L81.7523 72.7ZM123.374 25.9C124.174 25.9 124.574 26.1667 124.574 26.7C124.574 26.9 124.408 27.5 124.074 28.5C123.808 29.5 123.641 30.2 123.574 30.6L125.874 28.3C128.474 26.6333 130.908 25.2667 133.174 24.2C135.441 23.1333 137.674 22.6 139.874 22.6C140.074 22.8667 140.174 23.6667 140.174 25C140.174 25.6667 140.108 26.7333 139.974 28.2C139.841 29.8 139.774 31.0667 139.774 32C139.774 32.4 139.841 32.9333 139.974 33.6C139.974 33.7333 139.708 33.9 139.174 34.1C138.641 34.2333 138.241 34.3333 137.974 34.4C134.774 35.3333 132.041 36.4333 129.774 37.7C127.508 38.9667 126.208 40.7667 125.874 43.1L125.474 45.3C124.808 48.9667 124.474 51.2333 124.474 52.1C124.474 54.1667 124.708 56.6667 125.174 59.6C125.241 60.0667 125.374 61.1667 125.574 62.9C125.774 64.5667 125.874 66.1333 125.874 67.6C125.874 68 125.808 68.6333 125.674 69.5C125.541 70.3667 125.408 71.2 125.274 72L125.874 72.7C125.808 73.1 124.941 73.4 123.274 73.6C121.608 73.8667 120.408 74 119.674 74H119.374C119.108 74 118.908 73.9333 118.774 73.8C118.641 73.7333 118.541 73.5667 118.474 73.3C118.274 73.7667 117.874 74.1 117.274 74.3C116.741 74.5 116.208 74.6 115.674 74.6C115.341 74.5333 114.941 74.4333 114.474 74.3C114.074 74.2333 113.774 74.1333 113.574 74L112.874 67.7V25.9H123.374ZM133.174 28.6C134.241 28.6 134.774 29.3333 134.774 30.8C134.774 31.2667 134.741 31.7 134.674 32.1C134.608 32.4333 134.574 32.7667 134.574 33.1C135.508 32.7667 136.241 32.2 136.774 31.4C137.374 30.6 137.674 29.6667 137.674 28.6C137.674 28.0667 137.208 27.4667 136.274 26.8C135.341 26.0667 134.874 25.5667 134.874 25.3C134.874 25.2333 134.941 25.1333 135.074 25C134.208 25.8667 133.774 26.3333 133.774 26.4L133.874 26.9C133.408 27.3667 132.708 27.8 131.774 28.2C130.841 28.6 130.141 29.0333 129.674 29.5C129.208 29.9667 128.974 30.7333 128.974 31.8C129.374 31.7333 129.741 31.5333 130.074 31.2C130.474 30.8 130.808 30.4333 131.074 30.1C131.808 29.1 132.508 28.6 133.174 28.6ZM120.674 31.1C120.674 32.7667 119.508 34.9333 117.174 37.6C118.108 37.2667 119.074 36.8333 120.074 36.3C121.074 35.7 121.574 35.2667 121.574 35V28.9C120.974 28.7667 120.041 28.6333 118.774 28.5C117.508 28.3667 116.574 28.2667 115.974 28.2V30.2H116.374C116.374 30.6667 116.274 31.1333 116.074 31.6C115.941 32.0667 115.874 32.5 115.874 32.9C117.008 32.9 118.074 32.4 119.074 31.4L115.974 34.5V35.8C116.108 35.6667 116.841 34.8667 118.174 33.4C119.574 31.8667 120.408 31.1 120.674 31.1ZM117.174 49.3C117.974 49.2333 118.941 49 120.074 48.6C121.208 48.1333 121.908 47.7667 122.174 47.5C122.441 46.2333 122.608 45.4 122.674 45C123.474 41.5333 124.141 38.9 124.674 37.1C125.208 35.3 126.041 33.4 127.174 31.4C125.374 32.8667 123.508 34.7 121.574 36.9C119.708 39.1 118.241 41.1667 117.174 43.1H117.574L122.174 41.9V42.4L117.174 48.6V49.3ZM128.674 35.3C129.408 35.3 130.008 35.1 130.474 34.7C130.941 34.2333 131.174 33.6667 131.174 33L131.074 32.1L128.074 35.2L128.674 35.3ZM118.474 38.8C117.408 38.8 116.708 39 116.374 39.4C116.041 39.8 115.874 40.4333 115.874 41.3L115.974 42.4L118.474 38.8ZM117.874 44.9C116.341 44.9 115.574 45.7667 115.574 47.5H116.574L118.474 44.9H117.874ZM119.974 49.9C118.974 50.0333 118.041 50.2333 117.174 50.5C116.374 50.7667 115.974 50.9667 115.974 51.1V54.9L120.274 49.9H119.974ZM116.574 56.7C116.841 57.0333 117.174 57.2 117.574 57.2C118.708 57.2 119.741 56.8333 120.674 56.1C121.674 55.3667 122.174 54.4667 122.174 53.4V52.7C122.174 51.7 121.974 50.9667 121.574 50.5C121.308 50.9 120.574 51.7667 119.374 53.1C118.241 54.4333 117.308 55.6333 116.574 56.7ZM115.374 61C115.374 61.0667 115.574 61.7 115.974 62.9C116.308 62.5667 116.874 62.0333 117.674 61.3C118.474 60.5 119.108 59.8333 119.574 59.3C120.041 58.7 120.274 58.2333 120.274 57.9L119.774 57.8C118.574 57.8 117.541 58.0667 116.674 58.6C115.808 59.0667 115.374 59.8667 115.374 61ZM122.174 57.9C122.108 58.0333 121.441 58.9 120.174 60.5C119.241 61.5 118.474 62.5 117.874 63.5C119.808 63.5 121.108 63.3 121.774 62.9C122.441 62.4333 122.774 61.3667 122.774 59.7C122.774 58.9 122.574 58.3 122.174 57.9ZM115.974 66.6C115.974 66.9333 116.041 67.3667 116.174 67.9C116.308 68.3667 116.441 68.7667 116.574 69.1C117.508 68.6333 118.374 67.9333 119.174 67C119.974 66.0667 120.541 65.1 120.874 64.1C120.541 64.3 120.208 64.4667 119.874 64.6C119.541 64.6667 119.241 64.7667 118.974 64.9C116.974 65.7 115.974 66.2667 115.974 66.6ZM122.774 64.6C121.241 66.0667 120.008 67.5667 119.074 69.1H119.774C120.108 69.1 120.774 68.9 121.774 68.5C122.841 68.1 123.374 67.8333 123.374 67.7L122.774 64.6ZM123.374 69.5C122.441 69.5 121.441 69.6667 120.374 70C119.374 70.3333 118.741 70.8333 118.474 71.5H119.774C122.174 71.5 123.374 71.1 123.374 70.3V69.5ZM178.155 24.1C178.355 24.1 178.622 24.2667 178.955 24.6C179.355 24.8667 179.555 25.1 179.555 25.3V32.7L178.855 33.3C178.389 33.3 176.789 33.3 174.055 33.3C171.389 33.3 168.889 33.5 166.555 33.9L166.655 34.6C166.655 35.4667 166.422 36.5333 165.955 37.8C165.555 39.1333 165.355 40.1 165.355 40.7C165.355 40.8333 165.422 41 165.555 41.2C165.755 41.3333 165.889 41.4 165.955 41.4V51.8C166.422 52.2667 166.655 53.3 166.655 54.9L166.555 57.4C166.889 57.4667 167.089 58.2667 167.155 59.8C167.222 61.2667 167.722 62.6 168.655 63.8C169.655 65 171.622 65.7333 174.555 66C174.755 66 175.222 66.0667 175.955 66.2C176.689 66.2667 177.255 66.5 177.655 66.9C178.055 67.2333 178.255 67.7667 178.255 68.5C178.255 69.7 178.155 70.6 177.955 71.2C177.755 71.8 177.389 72.5333 176.855 73.4L175.855 75.2C174.722 75.1333 173.455 74.9 172.055 74.5C170.655 74.1 169.322 73.7 168.055 73.3C164.855 72.2333 162.555 71.6667 161.155 71.6C159.822 71.6 158.922 70.1667 158.455 67.3C158.055 64.3667 157.855 61.5667 157.855 58.9C157.855 57.0333 158.022 55.2667 158.355 53.6C158.422 53.1333 158.489 52.6 158.555 52C158.622 51.4 158.655 50.7333 158.655 50C158.655 46.8 158.222 41.4333 157.355 33.9C156.755 33.8333 156.155 33.7333 155.555 33.6C155.022 33.4667 154.555 33.3667 154.155 33.3C152.422 32.8333 151.189 32.6 150.455 32.6C150.122 32.6 149.722 32.1333 149.255 31.2C148.789 30.2 148.555 29.4 148.555 28.8C148.555 27.4667 148.989 26.6 149.855 26.2C150.722 25.8 151.955 25.5667 153.555 25.5C154.422 25.5 155.055 25.4667 155.455 25.4C155.855 25.2667 156.089 25.0333 156.155 24.7C156.155 23.1667 156.255 21.5333 156.455 19.8C156.722 18.0667 157.022 17.0333 157.355 16.7C158.222 17.0333 158.655 18.6 158.655 21.4L158.555 24.1L159.155 24.7C159.289 24.6333 160.055 24.2667 161.455 23.6C162.855 22.9333 163.555 22.3333 163.555 21.8L163.455 21C163.455 20.8 163.555 20.0667 163.755 18.8C163.955 17.5333 164.055 16.6 164.055 16H163.855C163.522 16 162.689 16.3333 161.355 17C160.022 17.6 159.289 17.9 159.155 17.9C159.489 17.5667 160.322 16.9333 161.655 16C160.322 15.7333 159.289 15.3333 158.555 14.8C159.155 14.3333 159.755 14.0333 160.355 13.9C161.022 13.7 161.822 13.5667 162.755 13.5C163.955 13.5 165.022 13.3333 165.955 13C165.955 13.2667 166.155 13.6 166.555 14C166.955 14.3333 167.155 14.6 167.155 14.8C167.089 15.0667 166.989 15.4667 166.855 16C166.722 16.4667 166.622 16.9 166.555 17.3C166.555 19.5667 166.789 21.2333 167.255 22.3C167.722 23.3667 168.422 24.0333 169.355 24.3C170.355 24.5667 171.889 24.7 173.955 24.7C174.422 24.7 175.089 24.6 175.955 24.4C176.822 24.2 177.555 24.1 178.155 24.1ZM163.455 20.9V21V20.9ZM166.555 27.1C166.089 26.9 165.455 26.3333 164.655 25.4C164.589 25.3333 164.355 25.1 163.955 24.7C163.622 24.2333 163.289 24 162.955 24C162.022 24 161.555 24.4333 161.555 25.3H162.255C161.722 26.1667 160.722 26.8333 159.255 27.3C157.789 27.7667 156.022 28.1667 153.955 28.5C153.222 28.6333 152.555 28.7667 151.955 28.9C151.422 29.0333 151.155 29.1667 151.155 29.3C151.155 29.7 151.889 30.0667 153.355 30.4C154.889 30.7333 155.989 30.9 156.655 30.9L162.255 26.5H163.555L160.355 29.6V30.2L166.555 27.1ZM169.655 27.1C169.122 27.1 168.655 27.2667 168.255 27.6C167.922 27.8667 167.555 28.3333 167.155 29C167.489 28.9333 168.022 28.7 168.755 28.3C169.555 27.8333 170.055 27.4333 170.255 27.1H169.655ZM177.055 27.8L174.055 27.7L170.955 27.8C170.422 27.8667 169.655 28.2333 168.655 28.9C167.655 29.5 167.155 29.9333 167.155 30.2V31C167.489 31 168.122 30.7333 169.055 30.2C169.989 29.6667 170.622 29.2667 170.955 29L169.655 30.9C170.455 30.9 171.589 30.7667 173.055 30.5C173.455 30.4333 173.922 30.3667 174.455 30.3C174.989 30.2333 175.622 30.2 176.355 30.2L177.055 27.8ZM164.055 30.2V29.6C163.722 29.8 163.389 30 163.055 30.2C162.789 30.3333 162.522 30.5 162.255 30.7C160.122 31.7667 159.055 32.6333 159.055 33.3H160.355L164.055 30.2ZM162.855 33.9C162.055 33.9 161.322 34.2667 160.655 35C160.055 35.6667 159.755 36.3 159.755 36.9V37.4C159.755 38.3333 159.955 38.8333 160.355 38.9C161.089 38.3667 161.689 37.7333 162.155 37C162.689 36.2 162.955 35.4 162.955 34.6L162.855 33.9ZM166.055 65.1C166.055 64.5 165.822 64.2 165.355 64.2L164.455 64.3L164.755 60.5C164.622 59.3667 164.422 58.2 164.155 57C163.889 55.7333 163.689 54.8333 163.555 54.3L162.855 53.7L163.555 53.1L163.655 50.8C163.655 49.2667 163.522 47.1667 163.255 44.5C162.922 42.1667 162.755 40 162.755 38C161.955 38 161.355 38.5 160.955 39.5C160.555 40.4333 160.355 41.3667 160.355 42.3C160.355 43.2333 160.455 43.8 160.655 44C160.855 44.1333 160.955 44.2667 160.955 44.4C160.955 44.6667 160.822 44.9667 160.555 45.3C160.355 45.6333 160.255 46.1 160.255 46.7C160.255 48.1 160.589 48.8 161.255 48.8H161.455C161.189 49.0667 160.922 49.6667 160.655 50.6C160.455 51.5333 160.355 52.3667 160.355 53.1C160.822 53.1 161.055 53.2667 161.055 53.6C161.055 53.8667 160.822 54.3333 160.355 55C159.889 55.6 159.655 55.9333 159.655 56C159.655 56.8 159.822 57.5333 160.155 58.2C160.489 58.8667 160.655 59.3333 160.655 59.6C160.655 60.1333 160.355 60.8333 159.755 61.7C159.822 61.9 159.989 62.2667 160.255 62.8C160.522 63.2667 160.755 63.5 160.955 63.5C161.355 63.5 161.822 63.4333 162.355 63.3C162.955 63.1667 163.355 63.0333 163.555 62.9C163.289 63.3 162.755 63.7 161.955 64.1C161.222 64.5 160.689 64.7333 160.355 64.8C160.355 67.9333 162.289 69.5 166.155 69.5C166.155 70.9 166.655 71.6 167.655 71.6C167.989 71.6 168.355 71.5 168.755 71.3C169.155 71.0333 169.455 70.7 169.655 70.3C169.789 70.3 169.889 70.3667 169.955 70.5C170.022 70.5667 170.122 70.6 170.255 70.6V71.7C171.855 71.7 173.289 70.8333 174.555 69.1C174.422 68.3 172.989 67.9 170.255 67.9C169.989 67.9 169.655 67.9667 169.255 68.1C168.922 68.2333 168.622 68.3667 168.355 68.5C168.422 68.4333 168.455 68.3 168.455 68.1C168.455 67.7 168.089 67.3667 167.355 67.1C166.622 66.7667 166.055 66.6 165.655 66.6C165.255 66.6 164.689 66.7 163.955 66.9C163.289 67.1 162.722 67.2 162.255 67.2C162.389 66.9333 162.955 66.6 163.955 66.2C164.955 65.7333 165.622 65.4333 165.955 65.3L166.055 65.1ZM161.655 48.7L161.455 48.8L161.655 48.7ZM175.455 72.2C175.455 71.1333 175.155 70.5 174.555 70.3C174.222 70.5 173.889 70.8 173.555 71.2C173.289 71.5333 173.155 71.8667 173.155 72.2H175.455ZM212.655 27C212.655 27.6 212.789 28.5667 213.055 29.9C213.322 31.1 213.455 31.9333 213.455 32.4C213.455 32.8667 213.255 33.1 212.855 33.1H212.655C211.989 33.1 211.589 33.4667 211.455 34.2L210.855 33.4C210.589 33.4667 209.722 33.5 208.255 33.5C207.122 33.5 206.222 33.4 205.555 33.2C204.889 33 204.389 32.9 204.055 32.9C202.589 32.9 201.455 33.5667 200.655 34.9C199.922 36.1667 199.555 37.5667 199.555 39.1C199.555 39.3 199.689 39.7667 199.955 40.5C200.289 41.1667 200.455 42.1333 200.455 43.4C200.455 44.4 200.222 45.6 199.755 47C199.355 48.4667 199.155 49.5333 199.155 50.2C199.155 50.2667 199.222 50.4 199.355 50.6C199.489 50.7333 199.589 50.8 199.655 50.8C199.589 51.1333 199.555 51.6 199.555 52.2C199.555 53.2 199.655 54.2 199.855 55.2C200.055 56.1333 200.189 56.7333 200.255 57C200.722 58.7333 200.955 60.3333 200.955 61.8C200.955 63.0667 200.822 64.9667 200.555 67.5C200.289 69.9 200.155 71.7333 200.155 73H193.555C193.089 73 192.322 72.0667 191.255 70.2C190.255 68.2667 189.755 67.0333 189.755 66.5C189.755 66.3 190.089 65.6667 190.755 64.6C191.489 63.5333 191.855 62.5667 191.855 61.7C191.855 60.9 191.722 59.7667 191.455 58.3C191.189 56.8333 191.055 55.7667 191.055 55.1C191.122 54.1667 191.222 52.9333 191.355 51.4C191.489 49.8667 191.622 48.6667 191.755 47.8C191.755 46 191.522 42.0667 191.055 36C191.189 35.8667 191.322 35.6667 191.455 35.4C191.655 35.1333 191.755 34.9 191.755 34.7C190.555 33.7667 189.255 33.3 187.855 33.3L185.555 33.4L184.855 32.9V26.1L185.555 25.6C185.822 25.3333 186.555 25.2 187.755 25.2C189.155 25.1333 190.255 24.9333 191.055 24.6C191.855 24.2667 192.255 23.5667 192.255 22.5C192.255 21.5 192.155 20.5667 191.955 19.7C191.755 17.9 191.655 16.9333 191.655 16.8C191.655 12.2 192.489 8.5 194.155 5.7C194.155 5.76666 194.922 5.43333 196.455 4.7C198.789 3.43333 200.289 2.76666 200.955 2.7C201.355 2.7 201.755 2.66666 202.155 2.59999C202.622 2.53333 203.022 2.46666 203.355 2.4C205.222 2.13333 206.522 2 207.255 2C208.589 2 209.489 2.06666 209.955 2.2C210.489 2.26667 210.855 2.56666 211.055 3.09999C211.322 3.56666 211.455 4.43333 211.455 5.7C211.455 7.96666 211.122 9.43333 210.455 10.1C209.789 10.7 208.755 11.0667 207.355 11.2C206.222 11.3333 205.289 11.6 204.555 12C203.889 12.4 203.289 13.2667 202.755 14.6C202.289 15.9333 202.055 17.9333 202.055 20.6C202.055 22.2667 202.289 23.9333 202.755 25.6C204.222 25.4667 205.522 25.4 206.655 25.4C209.122 25.4 211.155 25.6333 212.755 26.1C212.689 26.3 212.655 26.6 212.655 27ZM206.255 3.7C206.055 3.7 205.689 3.96666 205.155 4.49999C204.622 5.03333 204.189 5.3 203.855 5.3C203.855 6.16666 203.955 6.76666 204.155 7.1C204.355 7.43333 204.789 7.6 205.455 7.6C206.255 7.6 206.855 7.5 207.255 7.3C207.655 7.1 207.855 6.7 207.855 6.1C207.855 5.56666 207.589 5.16666 207.055 4.89999C206.522 4.56666 206.255 4.16666 206.255 3.7ZM200.855 9.9C200.855 9.63333 201.122 9.3 201.655 8.9C202.255 8.43333 202.822 8.2 203.355 8.2C203.289 7.86666 203.055 7.39999 202.655 6.79999C202.255 6.2 201.889 5.83333 201.555 5.7C201.089 5.7 199.989 6.06666 198.255 6.79999C196.589 7.46666 195.622 7.93333 195.355 8.2C194.889 8.86667 194.655 11.0333 194.655 14.7C194.655 15.6333 194.855 16.2333 195.255 16.5C195.655 16.7667 196.322 16.9 197.255 16.9L197.855 16.8C197.855 17.4 196.789 17.7 194.655 17.7C194.655 19.5667 194.855 21.2333 195.255 22.7C195.655 24.1667 196.622 24.9 198.155 24.9C198.555 24.9 199.055 23.3333 199.655 20.2C200.255 17.0667 200.689 14.1 200.955 11.3L200.855 9.9ZM198.455 18.7L197.855 18.1H198.455V18.7ZM197.155 35.6C197.222 35.6667 197.489 34.9 197.955 33.3C198.489 31.7 198.889 30.4333 199.155 29.5C199.155 29.1 198.689 28.3667 197.755 27.3C196.889 26.2333 196.322 25.6667 196.055 25.6C195.789 25.6 195.522 25.6667 195.255 25.8C194.989 25.8667 194.822 25.9667 194.755 26.1C195.155 26.1667 195.355 26.5667 195.355 27.3C195.355 28.0333 195.255 28.5333 195.055 28.8C194.922 29.0667 194.555 29.2 193.955 29.2C193.489 29.2 192.955 29.1667 192.355 29.1C191.822 29.0333 191.422 28.9667 191.155 28.9C190.355 28.7 189.489 28.6 188.555 28.6C188.222 28.6 187.855 28.7 187.455 28.9C187.122 29.0333 186.955 29.2667 186.955 29.6C186.955 29.8 187.955 30.0667 189.955 30.4C191.955 30.7333 193.422 30.9333 194.355 31H194.855C195.855 31 196.422 31.2 196.555 31.6C195.822 31.6 195.322 31.7 195.055 31.9C194.855 32.0333 194.755 32.2333 194.755 32.5L194.855 33.3C194.855 33.7 194.622 34 194.155 34.2C194.555 35.5333 194.755 36.5333 194.755 37.2C194.755 37.4667 194.722 37.8 194.655 38.2C194.655 38.6 194.655 39.2 194.655 40C195.255 39.6667 195.922 39.5 196.655 39.5C197.455 39.5 197.889 39.5 197.955 39.5C197.955 39.1667 197.755 38.8667 197.355 38.6C197.022 38.2667 196.655 38.0333 196.255 37.9H196.455C196.989 37.9 197.255 37.5 197.255 36.7L197.155 35.6ZM205.255 28C205.055 27.8667 204.755 27.7333 204.355 27.6C203.955 27.4 203.622 27.3 203.355 27.3C202.955 27.3 202.555 27.5333 202.155 28C201.822 28.4 201.622 28.7667 201.555 29.1H204.655L205.255 28ZM210.155 29.9C210.222 29.8333 210.355 29.7 210.555 29.5C210.822 29.2333 210.955 28.9667 210.955 28.7C210.822 28.6333 210.489 28.5 209.955 28.3C209.489 28.1 209.122 28 208.855 28L207.655 28.6L210.155 29.9ZM196.055 37.8L196.255 37.9L196.055 37.8ZM196.555 43.9C196.689 44.9 197.122 45.4 197.855 45.4V43.9H196.555ZM197.855 60.1C197.922 59.9 197.955 59.2667 197.955 58.2C197.955 57.1333 197.689 56.2667 197.155 55.6C196.622 54.8667 195.822 54.5 194.755 54.5C194.622 54.5 194.489 54.6 194.355 54.8C194.222 54.9333 194.155 55.0333 194.155 55.1C194.155 56.0333 194.489 56.9 195.155 57.7C195.889 58.4333 196.789 59.2333 197.855 60.1ZM254.149 27C259.016 30.2667 262.483 33.9667 264.549 38.1C266.683 42.2333 267.749 47.3 267.749 53.3L267.649 56.6C267.516 56.9333 267.249 57.2 266.849 57.4C266.516 57.6 266.249 57.8 266.049 58C265.849 58.2 265.749 58.5667 265.749 59.1C265.749 59.3667 265.783 59.6333 265.849 59.9C265.916 60.1 266.083 60.2667 266.349 60.4C265.949 60.4 265.616 60.6667 265.349 61.2C265.149 61.6667 264.816 62.5333 264.349 63.8C263.816 65.6667 263.283 66.8 262.749 67.2C259.083 69.9333 255.183 71.9 251.049 73.1C246.916 74.3 242.349 74.9 237.349 74.9L229.549 70C228.416 70 227.483 69.6333 226.749 68.9C226.016 68.1667 225.283 67.0667 224.549 65.6C224.083 64.8667 223.583 64.1333 223.049 63.4C222.516 62.6 221.949 62 221.349 61.6C220.416 59.3333 219.783 57 219.449 54.6C219.116 52.1333 218.949 49.3667 218.949 46.3L222.749 35.7C222.816 35.5667 223.616 34.7 225.149 33.1C226.749 31.5 228.149 30.1333 229.349 29C231.149 27.4 233.383 26.0667 236.049 25C238.716 23.9333 241.249 23.4 243.649 23.4C245.383 23.4 247.149 23.7333 248.949 24.4C250.816 25.0667 252.549 25.9333 254.149 27ZM231.449 32C231.449 32.2667 231.149 32.6 230.549 33C230.016 33.3333 229.749 33.7 229.749 34.1H231.149C233.283 34.1 234.349 33.8 234.349 33.2L232.549 32C232.549 31.8667 232.616 31.7333 232.749 31.6C232.883 31.4667 233.016 31.4 233.149 31.4C233.616 31.4 234.183 31.5333 234.849 31.8C235.583 32 236.083 32.1 236.349 32.1C236.883 32.1 237.383 31.9333 237.849 31.6C238.316 31.2667 238.816 30.8 239.349 30.2C240.149 29.2667 240.949 28.6667 241.749 28.4H240.849H240.149C239.749 28.4 239.449 28.3667 239.249 28.3C239.049 28.1667 238.849 27.9667 238.649 27.7C238.049 27.7 237.416 27.8667 236.749 28.2C236.149 28.4667 235.416 28.9333 234.549 29.6C233.216 30.5333 232.116 31.1333 231.249 31.4C231.383 31.6 231.449 31.8 231.449 32ZM247.549 27.7C247.349 27.7 246.883 28.0333 246.149 28.7C245.483 29.3667 245.049 29.8667 244.849 30.2L247.349 30.7C250.016 31.1667 251.649 31.4 252.249 31.4C252.583 31.4 252.883 31.3667 253.149 31.3C253.416 31.2333 253.749 31.0667 254.149 30.8C253.483 29.9333 252.449 29.2 251.049 28.6C249.716 28 248.549 27.7 247.549 27.7ZM253.249 32C253.249 32.4667 253.549 32.8333 254.149 33.1C254.749 33.3 255.349 33.4 255.949 33.4V32H253.249ZM245.149 33.1C242.883 33.1 240.983 33.5 239.449 34.3C237.916 35.1 236.216 36.4 234.349 38.2C233.949 38.5333 233.683 39.2333 233.549 40.3C233.483 40.9 233.383 41.3667 233.249 41.7C233.116 42.0333 232.883 42.3 232.549 42.5C232.283 43.1 231.916 44.4333 231.449 46.5C230.983 48.5 230.716 49.8333 230.649 50.5C230.583 50.9 230.549 51.4333 230.549 52.1C230.549 57.7 233.449 61.9 239.249 64.7L243.949 64.9C247.949 64.9 251.016 64.2667 253.149 63C255.349 61.7333 256.849 59.8667 257.649 57.4C258.516 54.9333 258.949 51.7 258.949 47.7C258.949 46.6333 258.649 45.0667 258.049 43C257.516 40.8667 256.983 39.2667 256.449 38.2C254.649 37.8 253.016 36.3667 251.549 33.9C250.816 33.9 249.783 33.7667 248.449 33.5C246.983 33.2333 245.883 33.1 245.149 33.1ZM257.449 33.1C257.116 33.1 256.849 33.2667 256.649 33.6C256.516 33.8667 256.449 34.1667 256.449 34.5C256.449 35.5 256.883 36.1333 257.749 36.4C257.883 36.3333 258.183 36.1667 258.649 35.9C259.183 35.6333 259.516 35.3667 259.649 35.1C259.383 34.8333 258.949 34.4333 258.349 33.9C257.816 33.3667 257.516 33.1 257.449 33.1ZM228.449 34.5C228.249 34.5 227.849 34.7667 227.249 35.3C226.716 35.8333 226.416 36.2667 226.349 36.6C226.349 37.4 226.916 37.8 228.049 37.8C228.449 37.8 228.916 37.8 229.449 37.8C230.049 37.7333 230.449 37.6667 230.649 37.6L231.249 35.1L228.449 34.5ZM258.349 36.9V37.8C259.483 37.8 260.116 37.5 260.249 36.9H258.349ZM225.449 38.2C224.783 38.2 224.316 38.6333 224.049 39.5C223.783 40.3667 223.649 41.2 223.649 42C224.783 42 225.916 41.7667 227.049 41.3C228.183 40.8333 228.949 40.2 229.349 39.4C228.283 38.6 226.983 38.2 225.449 38.2ZM262.249 40.4C262.249 39.8 262.149 39.3 261.949 38.9C261.749 38.4333 261.416 38.2 260.949 38.2C260.016 38.2 259.549 38.5 259.549 39.1C259.549 39.9667 260.449 40.4 262.249 40.4ZM227.249 43.2C228.049 43.2 228.616 43.0667 228.949 42.8C229.349 42.5333 229.683 42.0333 229.949 41.3L229.649 41.2C229.249 41.2 228.749 41.4333 228.149 41.9C227.549 42.3667 227.249 42.8 227.249 43.2ZM260.849 42.7C261.183 42.7 261.483 42.5667 261.749 42.3C262.083 41.9667 262.249 41.6333 262.249 41.3H260.849V42.7ZM264.549 45.6C264.549 45.2 264.383 44.7 264.049 44.1C263.783 43.4333 263.449 43.1 263.049 43.1C261.983 43.1 261.449 43.5 261.449 44.3C261.449 44.6333 261.549 45.0333 261.749 45.5C262.016 45.9 262.149 46.2 262.149 46.4V46.5C262.149 46.7 262.049 46.9 261.849 47.1C261.716 47.3 261.583 47.4 261.449 47.4L261.849 47.5C261.983 47.5 262.249 47.3333 262.649 47C263.049 46.6 263.316 46.3667 263.449 46.3C263.716 46.3 263.949 46.2333 264.149 46.1C264.416 45.9 264.549 45.7333 264.549 45.6ZM224.749 44.3C223.683 44.3 222.883 44.5667 222.349 45.1C221.883 45.6333 221.649 46.4667 221.649 47.6C222.516 47.6 223.349 47.3667 224.149 46.9C224.949 46.4333 225.849 45.8 226.849 45C226.849 44.5333 226.349 44.3 225.349 44.3C225.216 44.3 225.116 44.3333 225.049 44.4C224.983 44.4 224.916 44.4 224.849 44.4C224.783 44.4 224.749 44.4 224.749 44.4C224.749 44.3333 224.749 44.3 224.749 44.3ZM227.549 49.2C227.949 49.2 228.149 48.6333 228.149 47.5C228.149 46.3667 228.149 45.7333 228.149 45.6C227.883 45.8667 227.483 46.1333 226.949 46.4C226.416 46.6667 226.049 46.8667 225.849 47C224.049 47.8 223.016 48.5333 222.749 49.2H227.549ZM264.849 51.3C264.849 48.7 264.549 47.4 263.949 47.4L261.449 50C261.716 50.4667 262.183 50.8 262.849 51C263.516 51.2 264.183 51.3 264.849 51.3ZM221.749 54.3C222.483 54.3 223.583 53.9667 225.049 53.3C226.516 52.5667 227.249 51.8667 227.249 51.2H222.749C222.083 51.2 221.749 52.2333 221.749 54.3ZM261.349 56.8C263.883 56.8 265.149 55.9333 265.149 54.2C265.149 53.5333 264.883 53.1333 264.349 53C263.883 52.8 263.183 52.7 262.249 52.7C262.249 53.3667 262.083 54.0333 261.749 54.7C261.483 55.3667 261.349 56.0667 261.349 56.8ZM228.449 52.8C228.183 52.8 227.549 53.0333 226.549 53.5C225.616 53.9667 224.949 54.4 224.549 54.8L227.549 55.5C227.816 55.5 228.016 55.2333 228.149 54.7C228.349 54.1 228.449 53.4667 228.449 52.8ZM223.849 59.8C223.983 59.7333 224.316 59.5333 224.849 59.2C225.449 58.8 225.916 58.4 226.249 58C226.649 57.5333 226.849 57.0667 226.849 56.6L225.749 56.5C225.416 56.5 224.883 56.5667 224.149 56.7C223.483 56.7667 223.149 56.9667 223.149 57.3L223.849 59.8ZM225.049 61.6C226.249 61.4 227.683 60.8 229.349 59.8C229.349 59.2667 229.249 58.8 229.049 58.4C228.916 58 228.716 57.8 228.449 57.8L228.149 57.9L225.049 61V61.6ZM261.249 60.5C262.049 60.5 262.716 60.3 263.249 59.9C263.783 59.4333 264.049 58.7667 264.049 57.9H261.249C261.249 58.3667 261.083 58.8333 260.749 59.3C260.483 59.7667 260.116 60.1333 259.649 60.4L261.249 60.5ZM226.349 63.5C227.216 65.2333 227.916 66.1 228.449 66.1C229.183 66.1 229.949 65.8333 230.749 65.3C231.549 64.7 231.949 64.0333 231.949 63.3C230.883 63.3 230.216 63.5667 229.949 64.1V61L226.349 62.8V63.1V63.5ZM256.849 64.9C258.049 64.9 259.216 64.7333 260.349 64.4C261.549 64 262.149 63.2667 262.149 62.2C262.149 61.8 261.583 61.6 260.449 61.6C259.583 61.6 258.749 61.9333 257.949 62.6C257.216 63.2667 256.849 64.0333 256.849 64.9ZM231.249 68.4C231.716 68.4 232.116 68.3333 232.449 68.2C232.783 68 233.116 67.6667 233.449 67.2V69.2C234.249 69.2 235.016 69.0333 235.749 68.7C236.483 68.3667 236.849 67.8667 236.849 67.2C236.849 66.7333 236.383 66.3 235.449 65.9C234.583 65.5 233.916 65.3 233.449 65.3H233.149L229.349 66.5C229.349 67.0333 229.516 67.5 229.849 67.9C230.249 68.2333 230.716 68.4 231.249 68.4ZM258.349 65.8C258.083 65.8 257.483 65.8 256.549 65.8C255.683 65.8 254.883 65.9333 254.149 66.2C253.483 66.4 252.849 66.7333 252.249 67.2C251.449 67.8 251.016 68.1 250.949 68.1H242.949L241.149 70.1C242.016 70.5 242.816 70.7667 243.549 70.9C244.283 70.9667 245.183 71 246.249 71C247.516 71 249.049 70.6667 250.849 70C252.716 69.3333 254.416 68.6333 255.949 67.9C257.549 67.1 258.349 66.6333 258.349 66.5V65.8ZM260.249 67.8H260.049C259.516 67.8 259.149 68 258.949 68.4L260.249 67.8ZM235.349 70.7C237.216 70.7 238.149 69.8667 238.149 68.2C237.416 68.2 236.749 68.4667 236.149 69C235.616 69.4667 235.349 70.0333 235.349 70.7ZM239.949 69.1C240.616 69.1 241.216 68.8667 241.749 68.4L240.849 68.3H240.449C239.783 68.3 239.383 68.5333 239.249 69L239.949 69.1ZM253.449 71C253.849 71 254.116 70.9667 254.249 70.9C254.449 70.7667 254.583 70.5 254.649 70.1L252.749 70.9L253.449 71ZM248.549 72.7L247.949 72.6C247.549 72.6 247.249 72.6667 247.049 72.8C246.849 72.8667 246.716 73.0667 246.649 73.4L248.549 72.7ZM296.771 67C298.104 67.4667 298.771 67.9 298.771 68.3C298.771 68.7 298.238 70.2 297.171 72.8C296.571 74 296.271 74.7 296.271 74.9L294.971 75.4V74.6C294.171 74.6 293.438 74.6333 292.771 74.7C292.104 74.7667 291.471 74.8 290.871 74.8C289.938 74.8 289.204 74.6 288.671 74.2C288.204 73.8667 287.971 73.1333 287.971 72C286.238 72 284.938 71.3667 284.071 70.1C283.204 68.8333 282.304 66.9333 281.371 64.4C280.904 58.4 280.571 52.2667 280.371 46C280.238 39.6667 280.171 32.2333 280.171 23.7V17.3C280.171 11.5 280.404 6.63333 280.871 2.7C282.004 2.1 283.438 1.7 285.171 1.5C285.438 1.43333 286.038 1.33333 286.971 1.19999C287.904 0.999997 288.738 0.699997 289.471 0.299994L289.771 0.199996C290.371 0.199996 290.671 0.566663 290.671 1.3C290.671 6.63333 290.471 14.7 290.071 25.5C289.804 30.7667 289.604 36.1333 289.471 41.6C289.471 43.0667 289.338 45.0667 289.071 47.6C289.004 48.1333 288.938 48.8333 288.871 49.7C288.804 50.5667 288.771 51.6 288.771 52.8C288.771 57.1333 289.304 60.6 290.371 63.2C291.438 65.7333 293.571 67 296.771 67ZM287.071 4.7C285.338 4.7 284.204 5.13333 283.671 6C283.138 6.8 282.871 8.16666 282.871 10.1H284.271C284.271 10.2333 284.304 10.3333 284.371 10.4C284.438 10.4667 284.471 10.5333 284.471 10.6C284.471 10.7333 284.304 10.9 283.971 11.1C283.704 11.2333 283.471 11.3 283.271 11.3V15C283.471 14.7333 283.871 14.2 284.471 13.4C285.138 12.5333 285.571 12.0667 285.771 12C285.704 12.2 285.571 12.6333 285.371 13.3C285.171 13.9 284.871 14.4667 284.471 15C284.538 15 284.671 15.0333 284.871 15.1C285.071 15.1 285.304 15.1 285.571 15.1C286.571 15.1 287.071 14.9 287.071 14.5V4.7ZM283.271 35.5C283.471 35.8333 284.104 36 285.171 36C284.971 36.2667 284.704 36.5 284.371 36.7C284.038 36.8333 283.771 37 283.571 37.2C283.371 37.4 283.271 37.7 283.271 38.1C283.271 38.6333 283.404 39.1667 283.671 39.7C283.938 40.2333 284.071 40.8667 284.071 41.6H286.371V38.4H285.171C285.971 37.3333 286.371 35.8333 286.371 33.9C286.371 33.5 286.271 32.9667 286.071 32.3C285.871 31.6333 285.771 31.1 285.771 30.7L286.371 28.2C286.838 26.6667 287.071 25.1333 287.071 23.6C287.004 23.4 286.904 23.2 286.771 23C286.638 22.7333 286.504 22.5333 286.371 22.4C286.371 23.3333 285.971 23.8 285.171 23.8L284.471 23.6C284.938 23.4 285.238 23.1 285.371 22.7C285.504 22.3 285.571 21.8 285.571 21.2H287.071V17.5C286.671 17.9667 286.104 18.5333 285.371 19.2C284.704 19.8 284.304 20.1 284.171 20.1L283.871 20C285.138 18.6 285.971 17.3667 286.371 16.3C285.638 16.3 284.838 16.4 283.971 16.6C283.104 16.7333 282.671 17.1 282.671 17.7C282.671 19.2333 282.871 20.3 283.271 20.9C283.671 21.5 283.871 21.8333 283.871 21.9C283.871 22.0333 283.671 22.5667 283.271 23.5C282.871 24.3667 282.671 25.0333 282.671 25.5C282.804 25.4333 282.971 25.3333 283.171 25.2C283.438 25 283.671 24.9 283.871 24.9C284.004 24.9 284.138 25 284.271 25.2C284.404 25.3333 284.471 25.4333 284.471 25.5C284.271 25.7 284.038 26.0333 283.771 26.5C283.504 26.9667 283.338 27.3333 283.271 27.6C283.271 28 283.438 28.2667 283.771 28.4C284.171 28.4667 284.404 28.5333 284.471 28.6C283.738 28.8 283.271 29.3333 283.071 30.2C282.938 31.0667 282.871 32.0333 282.871 33.1C283.404 33.1 283.838 32.9667 284.171 32.7C284.504 32.3667 284.738 32.2 284.871 32.2L285.171 32.3C284.971 32.8333 284.638 33.4333 284.171 34.1C283.771 34.7667 283.471 35.2333 283.271 35.5ZM286.471 42.7C285.538 42.7 284.871 42.9667 284.471 43.5C284.071 44.0333 283.871 44.8333 283.871 45.9C284.004 45.7667 284.338 45.5333 284.871 45.2C285.471 44.8667 285.871 44.5 286.071 44.1C286.338 43.7 286.471 43.2333 286.471 42.7ZM285.771 66.9C286.104 66.9 286.504 66.2 286.971 64.8C287.438 63.4 287.671 62.4333 287.671 61.9C287.671 61.2333 287.571 60.8 287.371 60.6C287.238 60.4 286.904 60.3 286.371 60.3V50.2L285.771 49.6C286.304 49.6 286.571 48.3 286.571 45.7C285.904 45.7 285.271 46.0667 284.671 46.8C284.071 47.4667 283.771 48.1667 283.771 48.9C283.771 48.9667 283.871 49.1 284.071 49.3C284.338 49.4333 284.471 49.5333 284.471 49.6L283.871 50.2V54.5C284.338 54.6333 284.571 55.0667 284.571 55.8C284.571 56.2667 284.471 57 284.271 58C284.004 58.6667 283.871 59.4 283.871 60.2C283.871 60.9333 284.204 61.6333 284.871 62.3C285.538 62.9667 285.871 63.5333 285.871 64C285.871 64.2 285.671 64.5667 285.271 65.1C284.871 65.5667 284.604 65.9667 284.471 66.3C284.538 66.3 284.738 66.4 285.071 66.6C285.404 66.8 285.638 66.9 285.771 66.9ZM293.771 71.2C293.838 71.1333 293.971 71 294.171 70.8C294.438 70.6 294.571 70.3667 294.571 70.1C294.571 69.9667 294.038 69.6333 292.971 69.1C291.904 68.5667 291.138 68.2 290.671 68C290.471 68 290.138 68.1333 289.671 68.4C289.204 68.6 288.704 68.7 288.171 68.7C288.371 68.6333 288.604 68.4333 288.871 68.1C289.204 67.7667 289.404 67.5667 289.471 67.5C289.471 67.0333 289.338 66.5667 289.071 66.1C288.871 65.6333 288.571 65.3 288.171 65.1C287.971 65.1 287.638 65.5 287.171 66.3C286.771 67.0333 286.504 67.6 286.371 68C286.371 69.4 287.204 70.5 288.871 71.3C290.538 72.1 292.071 72.5 293.471 72.5C293.871 72.5 294.204 72.2333 294.471 71.7L293.771 71.2ZM311.573 6.1C311.639 5.96667 312.339 5.83333 313.673 5.7C315.006 5.49999 316.139 5.39999 317.073 5.39999C317.606 5.39999 318.239 5.56666 318.973 5.9C319.773 6.16666 320.173 6.43333 320.173 6.7V14.1C320.173 14.9667 319.573 15.4 318.373 15.4C316.773 15.4 315.006 15.2667 313.073 15C311.206 14.7333 310.273 14.2333 310.273 13.5V7.19999L311.573 6.1ZM312.473 8.5C312.473 9.16666 312.606 9.86666 312.873 10.6C313.139 11.2667 313.573 11.6 314.173 11.6C315.373 11.6 316.206 11.5 316.673 11.3C317.206 11.1 317.473 10.6 317.473 9.8C317.473 9.46666 317.339 9.03333 317.073 8.5C316.873 8.56666 316.606 8.7 316.273 8.9C316.006 9.1 315.673 9.2 315.273 9.2L315.973 8.5H312.473ZM312.773 72C312.639 71.5333 312.339 70.9667 311.873 70.3C311.406 69.6333 311.106 69 310.973 68.4C310.039 64.5333 309.439 60.5 309.173 56.3C308.906 52.0333 308.773 47 308.773 41.2V38C308.773 33.8 309.139 30.6 309.873 28.4C310.606 26.2 312.206 25.1 314.673 25.1C317.139 25.1 318.806 26.1667 319.673 28.3C320.606 30.3667 321.073 33.0667 321.073 36.4C321.073 40.0667 320.806 44.1 320.273 48.5C319.806 51.9 319.573 54.9 319.573 57.5C319.573 59.1667 319.706 61.6 319.973 64.8C320.039 65.6 320.106 66.5667 320.173 67.7C320.239 68.8333 320.273 70.1667 320.273 71.7C320.273 72.7667 319.839 73.3 318.973 73.3C318.173 73.1667 317.139 72.9667 315.873 72.7C314.673 72.4333 313.639 72.2 312.773 72ZM313.773 31.4C316.439 31.4 317.773 31 317.773 30.2C317.773 29.4 317.673 28.8667 317.473 28.6C317.339 28.3333 317.039 28.2 316.573 28.2C316.439 28.2 316.139 28.3333 315.673 28.6C315.206 28.8 314.873 28.9 314.673 28.9C314.539 28.9 314.373 28.8 314.173 28.6C313.973 28.3333 313.706 28.2 313.373 28.2C312.906 28.2 312.539 28.3 312.273 28.5C312.073 28.6333 311.839 28.9667 311.573 29.5C312.106 30.0333 312.606 30.3 313.073 30.3L313.373 30.2L312.773 31.4H313.773ZM311.473 34.3C311.473 34.4333 311.539 34.6 311.673 34.8C311.873 34.9333 312.039 35 312.173 35C312.773 35 313.506 34.5667 314.373 33.7C315.239 32.7667 315.773 32.2 315.973 32H315.573C315.039 32 314.239 32.1667 313.173 32.5C312.106 32.8333 311.573 33.4 311.573 34.2L311.473 34.3ZM317.973 32.2C316.239 32.2 314.506 33.7333 312.773 36.8C313.706 36.4667 314.773 36.3 315.973 36.3C316.573 36.3 317.006 36.2333 317.273 36.1C317.539 35.9667 317.706 35.6333 317.773 35.1C317.906 34.5 317.973 33.5333 317.973 32.2ZM311.573 40.5C311.573 40.6333 311.639 40.8 311.773 41C311.973 41.1333 312.106 41.2 312.173 41.2C313.639 40.4 315.073 39.2 316.473 37.6L315.573 37.5C314.506 37.5 313.573 37.7667 312.773 38.3C311.973 38.7667 311.573 39.5 311.573 40.5ZM317.773 38.2C315.973 39.1333 314.739 40.3333 314.073 41.8L314.973 41.9C315.439 41.9 316.006 41.8667 316.673 41.8C317.406 41.6667 317.773 41.4667 317.773 41.2V38.2ZM314.073 47.5C317.073 47.5 318.573 46.0333 318.573 43.1H317.773L314.073 46.8V47.5ZM314.073 43.6C312.739 43.6 312.073 44.1667 312.073 45.3L312.173 46.3L314.673 43.7L314.073 43.6ZM315.373 48.5C314.506 48.5 313.673 48.7667 312.873 49.3C312.073 49.8333 311.673 50.5 311.673 51.3C312.406 51.3 313.206 51.0333 314.073 50.5C314.939 49.9 315.373 49.2333 315.373 48.5ZM317.073 49.2C316.806 49.3333 316.073 49.9333 314.873 51C313.739 52.0667 312.839 52.9333 312.173 53.6H317.073C317.473 53.6 317.706 53.2 317.773 52.4C317.906 51.5333 317.973 50.4667 317.973 49.2H317.073ZM312.173 56C312.173 56.8667 312.373 57.3 312.773 57.3L315.973 54.8V54.2C313.439 54.5333 312.173 55.1333 312.173 56ZM312.773 59.9C314.439 59.9 315.573 59.5667 316.173 58.9C316.839 58.2333 317.173 57.0667 317.173 55.4H316.473L312.773 59.1V59.9ZM312.773 62.2C312.773 62.4 312.839 62.6333 312.973 62.9C313.106 63.1 313.239 63.2667 313.373 63.4L315.973 61L314.973 60.9C313.706 60.9 312.973 61.3333 312.773 62.2ZM312.773 67.8C313.039 68.5333 313.573 69 314.373 69.2C315.239 69.3333 316.239 69.4 317.373 69.4C317.373 68.8 317.173 68.3 316.773 67.9C316.439 67.4333 316.273 67.1667 316.273 67.1C316.273 67.1 316.473 67 316.873 66.8C317.273 66.6 317.473 65.0667 317.473 62.2H315.973C315.839 62.2 315.339 62.7333 314.473 63.8C313.673 64.8667 313.273 65.5333 313.273 65.8V65.9H315.973L312.773 67.8ZM365.184 27C370.051 30.2667 373.518 33.9667 375.584 38.1C377.718 42.2333 378.784 47.3 378.784 53.3L378.684 56.6C378.551 56.9333 378.284 57.2 377.884 57.4C377.551 57.6 377.284 57.8 377.084 58C376.884 58.2 376.784 58.5667 376.784 59.1C376.784 59.3667 376.818 59.6333 376.884 59.9C376.951 60.1 377.118 60.2667 377.384 60.4C376.984 60.4 376.651 60.6667 376.384 61.2C376.184 61.6667 375.851 62.5333 375.384 63.8C374.851 65.6667 374.318 66.8 373.784 67.2C370.118 69.9333 366.218 71.9 362.084 73.1C357.951 74.3 353.384 74.9 348.384 74.9L340.584 70C339.451 70 338.518 69.6333 337.784 68.9C337.051 68.1667 336.318 67.0667 335.584 65.6C335.118 64.8667 334.618 64.1333 334.084 63.4C333.551 62.6 332.984 62 332.384 61.6C331.451 59.3333 330.818 57 330.484 54.6C330.151 52.1333 329.984 49.3667 329.984 46.3L333.784 35.7C333.851 35.5667 334.651 34.7 336.184 33.1C337.784 31.5 339.184 30.1333 340.384 29C342.184 27.4 344.418 26.0667 347.084 25C349.751 23.9333 352.284 23.4 354.684 23.4C356.418 23.4 358.184 23.7333 359.984 24.4C361.851 25.0667 363.584 25.9333 365.184 27ZM342.484 32C342.484 32.2667 342.184 32.6 341.584 33C341.051 33.3333 340.784 33.7 340.784 34.1H342.184C344.318 34.1 345.384 33.8 345.384 33.2L343.584 32C343.584 31.8667 343.651 31.7333 343.784 31.6C343.918 31.4667 344.051 31.4 344.184 31.4C344.651 31.4 345.218 31.5333 345.884 31.8C346.618 32 347.118 32.1 347.384 32.1C347.918 32.1 348.418 31.9333 348.884 31.6C349.351 31.2667 349.851 30.8 350.384 30.2C351.184 29.2667 351.984 28.6667 352.784 28.4H351.884H351.184C350.784 28.4 350.484 28.3667 350.284 28.3C350.084 28.1667 349.884 27.9667 349.684 27.7C349.084 27.7 348.451 27.8667 347.784 28.2C347.184 28.4667 346.451 28.9333 345.584 29.6C344.251 30.5333 343.151 31.1333 342.284 31.4C342.418 31.6 342.484 31.8 342.484 32ZM358.584 27.7C358.384 27.7 357.918 28.0333 357.184 28.7C356.518 29.3667 356.084 29.8667 355.884 30.2L358.384 30.7C361.051 31.1667 362.684 31.4 363.284 31.4C363.618 31.4 363.918 31.3667 364.184 31.3C364.451 31.2333 364.784 31.0667 365.184 30.8C364.518 29.9333 363.484 29.2 362.084 28.6C360.751 28 359.584 27.7 358.584 27.7ZM364.284 32C364.284 32.4667 364.584 32.8333 365.184 33.1C365.784 33.3 366.384 33.4 366.984 33.4V32H364.284ZM356.184 33.1C353.918 33.1 352.018 33.5 350.484 34.3C348.951 35.1 347.251 36.4 345.384 38.2C344.984 38.5333 344.718 39.2333 344.584 40.3C344.518 40.9 344.418 41.3667 344.284 41.7C344.151 42.0333 343.918 42.3 343.584 42.5C343.318 43.1 342.951 44.4333 342.484 46.5C342.018 48.5 341.751 49.8333 341.684 50.5C341.618 50.9 341.584 51.4333 341.584 52.1C341.584 57.7 344.484 61.9 350.284 64.7L354.984 64.9C358.984 64.9 362.051 64.2667 364.184 63C366.384 61.7333 367.884 59.8667 368.684 57.4C369.551 54.9333 369.984 51.7 369.984 47.7C369.984 46.6333 369.684 45.0667 369.084 43C368.551 40.8667 368.018 39.2667 367.484 38.2C365.684 37.8 364.051 36.3667 362.584 33.9C361.851 33.9 360.818 33.7667 359.484 33.5C358.018 33.2333 356.918 33.1 356.184 33.1ZM368.484 33.1C368.151 33.1 367.884 33.2667 367.684 33.6C367.551 33.8667 367.484 34.1667 367.484 34.5C367.484 35.5 367.918 36.1333 368.784 36.4C368.918 36.3333 369.218 36.1667 369.684 35.9C370.218 35.6333 370.551 35.3667 370.684 35.1C370.418 34.8333 369.984 34.4333 369.384 33.9C368.851 33.3667 368.551 33.1 368.484 33.1ZM339.484 34.5C339.284 34.5 338.884 34.7667 338.284 35.3C337.751 35.8333 337.451 36.2667 337.384 36.6C337.384 37.4 337.951 37.8 339.084 37.8C339.484 37.8 339.951 37.8 340.484 37.8C341.084 37.7333 341.484 37.6667 341.684 37.6L342.284 35.1L339.484 34.5ZM369.384 36.9V37.8C370.518 37.8 371.151 37.5 371.284 36.9H369.384ZM336.484 38.2C335.818 38.2 335.351 38.6333 335.084 39.5C334.818 40.3667 334.684 41.2 334.684 42C335.818 42 336.951 41.7667 338.084 41.3C339.218 40.8333 339.984 40.2 340.384 39.4C339.318 38.6 338.018 38.2 336.484 38.2ZM373.284 40.4C373.284 39.8 373.184 39.3 372.984 38.9C372.784 38.4333 372.451 38.2 371.984 38.2C371.051 38.2 370.584 38.5 370.584 39.1C370.584 39.9667 371.484 40.4 373.284 40.4ZM338.284 43.2C339.084 43.2 339.651 43.0667 339.984 42.8C340.384 42.5333 340.718 42.0333 340.984 41.3L340.684 41.2C340.284 41.2 339.784 41.4333 339.184 41.9C338.584 42.3667 338.284 42.8 338.284 43.2ZM371.884 42.7C372.218 42.7 372.518 42.5667 372.784 42.3C373.118 41.9667 373.284 41.6333 373.284 41.3H371.884V42.7ZM375.584 45.6C375.584 45.2 375.418 44.7 375.084 44.1C374.818 43.4333 374.484 43.1 374.084 43.1C373.018 43.1 372.484 43.5 372.484 44.3C372.484 44.6333 372.584 45.0333 372.784 45.5C373.051 45.9 373.184 46.2 373.184 46.4V46.5C373.184 46.7 373.084 46.9 372.884 47.1C372.751 47.3 372.618 47.4 372.484 47.4L372.884 47.5C373.018 47.5 373.284 47.3333 373.684 47C374.084 46.6 374.351 46.3667 374.484 46.3C374.751 46.3 374.984 46.2333 375.184 46.1C375.451 45.9 375.584 45.7333 375.584 45.6ZM335.784 44.3C334.718 44.3 333.918 44.5667 333.384 45.1C332.918 45.6333 332.684 46.4667 332.684 47.6C333.551 47.6 334.384 47.3667 335.184 46.9C335.984 46.4333 336.884 45.8 337.884 45C337.884 44.5333 337.384 44.3 336.384 44.3C336.251 44.3 336.151 44.3333 336.084 44.4C336.018 44.4 335.951 44.4 335.884 44.4C335.818 44.4 335.784 44.4 335.784 44.4C335.784 44.3333 335.784 44.3 335.784 44.3ZM338.584 49.2C338.984 49.2 339.184 48.6333 339.184 47.5C339.184 46.3667 339.184 45.7333 339.184 45.6C338.918 45.8667 338.518 46.1333 337.984 46.4C337.451 46.6667 337.084 46.8667 336.884 47C335.084 47.8 334.051 48.5333 333.784 49.2H338.584ZM375.884 51.3C375.884 48.7 375.584 47.4 374.984 47.4L372.484 50C372.751 50.4667 373.218 50.8 373.884 51C374.551 51.2 375.218 51.3 375.884 51.3ZM332.784 54.3C333.518 54.3 334.618 53.9667 336.084 53.3C337.551 52.5667 338.284 51.8667 338.284 51.2H333.784C333.118 51.2 332.784 52.2333 332.784 54.3ZM372.384 56.8C374.918 56.8 376.184 55.9333 376.184 54.2C376.184 53.5333 375.918 53.1333 375.384 53C374.918 52.8 374.218 52.7 373.284 52.7C373.284 53.3667 373.118 54.0333 372.784 54.7C372.518 55.3667 372.384 56.0667 372.384 56.8ZM339.484 52.8C339.218 52.8 338.584 53.0333 337.584 53.5C336.651 53.9667 335.984 54.4 335.584 54.8L338.584 55.5C338.851 55.5 339.051 55.2333 339.184 54.7C339.384 54.1 339.484 53.4667 339.484 52.8ZM334.884 59.8C335.018 59.7333 335.351 59.5333 335.884 59.2C336.484 58.8 336.951 58.4 337.284 58C337.684 57.5333 337.884 57.0667 337.884 56.6L336.784 56.5C336.451 56.5 335.918 56.5667 335.184 56.7C334.518 56.7667 334.184 56.9667 334.184 57.3L334.884 59.8ZM336.084 61.6C337.284 61.4 338.718 60.8 340.384 59.8C340.384 59.2667 340.284 58.8 340.084 58.4C339.951 58 339.751 57.8 339.484 57.8L339.184 57.9L336.084 61V61.6ZM372.284 60.5C373.084 60.5 373.751 60.3 374.284 59.9C374.818 59.4333 375.084 58.7667 375.084 57.9H372.284C372.284 58.3667 372.118 58.8333 371.784 59.3C371.518 59.7667 371.151 60.1333 370.684 60.4L372.284 60.5ZM337.384 63.5C338.251 65.2333 338.951 66.1 339.484 66.1C340.218 66.1 340.984 65.8333 341.784 65.3C342.584 64.7 342.984 64.0333 342.984 63.3C341.918 63.3 341.251 63.5667 340.984 64.1V61L337.384 62.8V63.1V63.5ZM367.884 64.9C369.084 64.9 370.251 64.7333 371.384 64.4C372.584 64 373.184 63.2667 373.184 62.2C373.184 61.8 372.618 61.6 371.484 61.6C370.618 61.6 369.784 61.9333 368.984 62.6C368.251 63.2667 367.884 64.0333 367.884 64.9ZM342.284 68.4C342.751 68.4 343.151 68.3333 343.484 68.2C343.818 68 344.151 67.6667 344.484 67.2V69.2C345.284 69.2 346.051 69.0333 346.784 68.7C347.518 68.3667 347.884 67.8667 347.884 67.2C347.884 66.7333 347.418 66.3 346.484 65.9C345.618 65.5 344.951 65.3 344.484 65.3H344.184L340.384 66.5C340.384 67.0333 340.551 67.5 340.884 67.9C341.284 68.2333 341.751 68.4 342.284 68.4ZM369.384 65.8C369.118 65.8 368.518 65.8 367.584 65.8C366.718 65.8 365.918 65.9333 365.184 66.2C364.518 66.4 363.884 66.7333 363.284 67.2C362.484 67.8 362.051 68.1 361.984 68.1H353.984L352.184 70.1C353.051 70.5 353.851 70.7667 354.584 70.9C355.318 70.9667 356.218 71 357.284 71C358.551 71 360.084 70.6667 361.884 70C363.751 69.3333 365.451 68.6333 366.984 67.9C368.584 67.1 369.384 66.6333 369.384 66.5V65.8ZM371.284 67.8H371.084C370.551 67.8 370.184 68 369.984 68.4L371.284 67.8ZM346.384 70.7C348.251 70.7 349.184 69.8667 349.184 68.2C348.451 68.2 347.784 68.4667 347.184 69C346.651 69.4667 346.384 70.0333 346.384 70.7ZM350.984 69.1C351.651 69.1 352.251 68.8667 352.784 68.4L351.884 68.3H351.484C350.818 68.3 350.418 68.5333 350.284 69L350.984 69.1ZM364.484 71C364.884 71 365.151 70.9667 365.284 70.9C365.484 70.7667 365.618 70.5 365.684 70.1L363.784 70.9L364.484 71ZM359.584 72.7L358.984 72.6C358.584 72.6 358.284 72.6667 358.084 72.8C357.884 72.8667 357.751 73.0667 357.684 73.4L359.584 72.7Z" fill="white"/>
</svg>
